name rise49.8558peak67.6521fall70.3087.mot
datacolumns 19
datarows 11
range 13.91994300000000 13.93661500000000
endheader
time	ground_force1_vx	ground_force1_vy	ground_force1_vz	ground_force1_px	ground_force1_py	ground_force1_pz	ground_force2_vx	ground_force2_vy	ground_force2_vz	ground_force2_px	ground_force2_py	ground_force2_pz	ground_torque1_x	ground_torque1_y	ground_torque1_z	ground_torque2_x	ground_torque2_y	ground_torque2_z	
13.91994300000000	-12.01062400000000	46.56946900000000	-10.99321300000000	0.40952500000000	0.00000000000000	0.09791100000000	-59.18558800000000	804.53454899999997	-57.70447600000000	0.17544100000000	0.00000000000000	-0.09156800000000	0.00000000000000	-8.24028600000000	0.00000000000000	0.00000000000000	-28.57290500000000	0.00000000000000	
13.92161600000000	-12.96877800000000	53.45392000000000	-12.12560700000000	0.41168800000000	0.00000000000000	0.09884500000000	-59.68264100000000	801.76101600000004	-57.34837700000000	0.17450400000000	0.00000000000000	-0.09148800000000	0.00000000000000	-9.15029500000000	0.00000000000000	0.00000000000000	-28.43918000000000	0.00000000000000	
13.92328000000000	-13.71805100000000	60.32722100000000	-13.12694700000000	0.41365500000000	0.00000000000000	0.09970000000000	-60.18489000000000	798.88000699999998	-56.97236000000000	0.17356200000000	0.00000000000000	-0.09140500000000	0.00000000000000	-9.97550700000000	0.00000000000000	0.00000000000000	-28.30218400000000	0.00000000000000	
13.92494600000000	-14.24129200000000	67.12256100000000	-13.97980200000000	0.41546200000000	0.00000000000000	0.10048900000000	-60.69230000000000	795.89118800000006	-56.57652500000000	0.17261600000000	0.00000000000000	-0.09131900000000	0.00000000000000	-10.70252600000000	0.00000000000000	0.00000000000000	-28.16202900000000	0.00000000000000	
13.92661100000000	-14.53267900000000	73.79721000000001	-14.67539000000000	0.41713800000000	0.00000000000000	0.10121900000000	-61.20478200000000	792.79416100000003	-56.16099000000000	0.17166500000000	0.00000000000000	-0.09123000000000	0.00000000000000	-11.32417100000000	0.00000000000000	0.00000000000000	-28.01882000000000	0.00000000000000	
13.92828300000000	-14.59669200000000	80.33222300000000	-15.21298600000000	0.41870600000000	0.00000000000000	0.10189900000000	-61.72218700000000	789.58846600000004	-55.72588900000000	0.17071000000000	0.00000000000000	-0.09113800000000	0.00000000000000	-11.83909900000000	0.00000000000000	0.00000000000000	-27.87266100000000	0.00000000000000	
13.92994300000000	-14.44642000000000	86.73022300000000	-15.59878100000000	0.42018500000000	0.00000000000000	0.10253400000000	-62.24430200000000	786.27358200000003	-55.27137200000000	0.16975100000000	0.00000000000000	-0.09104300000000	0.00000000000000	-12.25101600000000	0.00000000000000	0.00000000000000	-27.72364500000000	0.00000000000000	
13.93161000000000	-14.10144900000000	93.01178899999999	-15.84436700000000	0.42159100000000	0.00000000000000	0.10313000000000	-62.77085200000000	782.84892300000001	-54.79760800000000	0.16879000000000	0.00000000000000	-0.09094400000000	0.00000000000000	-12.56760800000000	0.00000000000000	0.00000000000000	-27.57186400000000	0.00000000000000	
13.93328200000000	-13.58558600000000	99.21098499999999	-15.96505000000000	0.42293600000000	0.00000000000000	0.10369100000000	-63.30149500000000	779.31384400000002	-54.30478200000000	0.16782600000000	0.00000000000000	-0.09084300000000	0.00000000000000	-12.79933600000000	0.00000000000000	0.00000000000000	-27.41740000000000	0.00000000000000	
13.93494900000000	-12.92462500000000	105.37055800000000	-15.97814200000000	0.42423000000000	0.00000000000000	0.10422000000000	-63.83582100000000	775.66764000000001	-53.79309700000000	0.16686100000000	0.00000000000000	-0.09073900000000	0.00000000000000	-12.95821500000000	0.00000000000000	0.00000000000000	-27.26032900000000	0.00000000000000	
13.93661500000000	-12.14434100000000	111.53723599999999	-15.90140300000000	0.42548300000000	0.00000000000000	0.10472100000000	-64.37335000000000	771.90954799999997	-53.26277100000000	0.16589500000000	0.00000000000000	-0.09063100000000	0.00000000000000	-13.05667200000000	0.00000000000000	0.00000000000000	-27.10072000000000	0.00000000000000	
